# xmcd CD database file
#
# Track frame offsets:
#	150
#	11857
#	20752
#	35202
#	47400
#	56522
#	70102
#	82807
#	92555
#	103367
#	113207
#	127212
#	139122
#	150577
#	162210
#	172890
#
# Disc length: 2458 seconds
#
# Revision: 0
# Processed by: cddbd v1.5.1PL0 Copyright (c) Steve Scherf et al.
# Submitted via: CDex 1.51
#
DISCID=d4099810
DTITLE=Various Artist - Country Hit No1 CD2 (CR20001)
DYEAR=1900
DGENRE=Country
TTITLE0=Ray Price/My Shoes Keep Walking
TTITLE1=Elvi Presley/All shook Up
TTITLE2=Red Foley/Midnight
TTITLE3=Johnny Cash/I Walk The Line
TTITLE4=The Everly Brothers/Wake Up Little Susie
TTITLE5=Webb Pierce/Wondering
TTITLE6=Hank Snow/i´m Moving On
TTITLE7=Bucl Owens/I Don´t Care
TTITLE8=Jim Reeves/I Guess I´m Crazy
TTITLE9=Eddy Arnold/What´s He Doin´ In My World
TTITLE10=Lefty Frizzel/Always Late
TTITLE11=Johnny Horton/When It´s Springtime In Alaska
TTITLE12=Carl Smith/Hey, Joe
TTITLE13=The Davis Sisters/I Forgot More Than You´ll Ever Know
TTITLE14=Ferlin Husky/Gone
TTITLE15=Faron Young/Country Girl
EXTD=
EXTT0=
EXTT1=
EXTT2=
EXTT3=
EXTT4=
EXTT5=
EXTT6=
EXTT7=
EXTT8=
EXTT9=
EXTT10=
EXTT11=
EXTT12=
EXTT13=
EXTT14=
EXTT15=
PLAYORDER=
